<?xml version="1.0" standalone="no"?>
<!DOCTYPE svg PUBLIC "-//W3C//DTD SVG 20010904//EN"
 "http://www.w3.org/TR/2001/REC-SVG-20010904/DTD/svg10.dtd">
<svg version="1.0" xmlns="http://www.w3.org/2000/svg"
 width="52.000000pt" height="73.000000pt" viewBox="0 0 52.000000 73.000000"
 preserveAspectRatio="xMidYMid meet">

<g transform="translate(0.000000,73.000000) scale(0.100000,-0.100000)"
fill="#000000" stroke="none">
<path d="M0 363 l0 -363 140 0 c92 0 140 4 140 11 0 5 5 7 10 4 6 -3 10 0 10
7 0 10 2 11 8 0 5 -7 16 -10 25 -6 10 3 17 1 17 -5 0 -7 30 -11 85 -11 84 0
85 0 85 25 0 14 -4 25 -9 25 -4 0 -11 29 -15 65 -8 83 -20 107 -61 129 -33 18
-35 18 -66 0 -49 -29 -57 -49 -37 -84 9 -17 13 -30 8 -30 -4 0 -15 -3 -24 -6
-13 -5 -16 2 -16 44 0 28 -4 52 -9 54 -5 1 -12 19 -16 39 -7 36 -7 36 35 43
81 13 165 76 191 143 15 39 10 101 -10 141 -77 149 -296 178 -418 56 -23 -24
-43 -39 -43 -34 0 18 57 70 96 89 l39 19 -83 4 -82 3 0 -362z m22 205 c-7 -7
-12 -8 -12 -2 0 14 12 26 19 19 2 -3 -1 -11 -7 -17z m61 -218 c-7 -7 -62 63
-63 78 0 8 15 -6 34 -30 18 -24 31 -45 29 -48z m32 -10 c3 -5 1 -10 -4 -10 -6
0 -11 5 -11 10 0 6 2 10 4 10 3 0 8 -4 11 -10z m40 -28 c-3 -3 -11 0 -18 7 -9
10 -8 11 6 5 10 -3 15 -9 12 -12z m49 -8 c18 -7 20 -45 9 -156 l-6 -68 -52 0
c-93 0 -112 8 -120 47 -4 25 0 46 15 79 14 28 20 54 16 69 -6 23 -4 24 56 28
35 2 64 4 65 5 1 1 8 -1 17 -4z m83 -141 c-3 -10 -5 -2 -5 17 0 19 2 27 5 18
2 -10 2 -26 0 -35z"/>
<path d="M416 687 c27 -19 59 -49 72 -67 l22 -33 0 67 0 66 -71 0 -71 0 48
-33z"/>
<path d="M460 372 c-25 -26 -54 -52 -65 -59 -17 -10 -9 -12 48 -12 l67 -1 0
60 c0 33 -1 60 -2 59 -2 0 -23 -22 -48 -47z"/>
</g>
</svg>
